Coordinates
version=1
nRows=6
nColumns=36
inDegrees=yes

Units are S.I. units (second, meters, Newtons, ...)
If the header above contains a line with 'inDegrees', this indicates whether rotational values are in degrees (yes) or radians (no).

endheader
time	pelvis_tilt	pelvis_list	pelvis_rotation	pelvis_tx	pelvis_ty	pelvis_tz	hip_flexion_r	hip_adduction_r	hip_rotation_r	knee_angle_r	knee_angle_r_beta	ankle_angle_r	subtalar_angle_r	mtp_angle_r	hip_flexion_l	hip_adduction_l	hip_rotation_l	knee_angle_l	knee_angle_l_beta	ankle_angle_l	subtalar_angle_l	mtp_angle_l	lumbar_extension	lumbar_bending	lumbar_rotation	arm_flex_r	arm_add_r	arm_rot_r	elbow_flex_r	pro_sup_r	arm_flex_l	arm_add_l	arm_rot_l	elbow_flex_l	pro_sup_l
      9.66000000	    -14.55614339	      0.70620449	      0.56437287	     -0.27068757	      0.81617409	     -0.58705966	     47.00742543	     -7.63863587	     -0.88380329	     51.98963959	      0.90739039	     21.60773404	     -8.20333395	     -7.49999987	     47.48958931	    -11.33785909	    -11.17835407	     53.19183006	      0.92837257	     20.77317628	      6.97496200	     -7.49999987	    -17.30498289	     -1.54271355	     -1.52499539	     14.72968430	     -8.31149663	     -7.49468671	    102.88091733	     99.29870630	     16.86582066	     -3.67385578	    -18.70666843	    109.60649047	     93.99266324
      9.67000000	    -14.13758516	      0.61803018	      0.79589444	     -0.26802941	      0.82141088	     -0.58749236	     45.47974311	     -7.63149466	     -1.17915255	     50.48544327	      0.88113721	     20.94690816	     -8.52834968	     -7.49999987	     46.17274682	    -11.08780945	    -11.21617221	     51.80002960	      0.90408107	     20.12863218	      7.04126624	     -7.49999987	    -16.91522434	     -1.41261864	     -1.70305867	     13.82385414	     -8.09503411	     -7.67633934	    101.90374221	     99.31488225	     16.29009277	     -3.71569413	    -18.52997734	    108.76277379	     93.97594038
      9.68000000	    -13.95489485	      0.53976206	      0.98175419	     -0.26546428	      0.82609051	     -0.58787188	     44.24222607	     -7.54798818	     -1.27292088	     49.01725391	      0.85551247	     20.46537655	     -8.67250532	     -7.49999987	     45.13067113	    -10.82598925	    -11.16618405	     50.43908827	      0.88032816	     19.67939099	      7.11941867	     -7.49999987	    -16.27447258	     -1.29822722	     -1.84088026	     12.82873492	     -7.88732335	     -7.84236996	    101.20256859	     99.33379051	     15.65221603	     -3.70616915	    -18.41380497	    108.10636810	     93.94230792
      9.69000000	    -13.61633413	      0.41935303	      1.13926836	     -0.26288991	      0.83099081	     -0.58810452	     42.79431348	     -7.39278637	     -1.40350174	     47.44864568	      0.82813509	     19.90514725	     -8.89768511	     -7.49999987	     43.89245971	    -10.64644018	    -11.14169729	     49.02610630	      0.85566697	     19.14793365	      7.16708792	     -7.49999987	    -15.82637927	     -1.18282611	     -1.96227083	     11.92172261	     -7.68943673	     -8.08278255	    100.47168088	     99.37296438	     15.11520936	     -3.74805040	    -18.16356689	    107.37506486	     93.88946793
      9.70000000	    -13.32372813	      0.31761897	      1.27964562	     -0.26031415	      0.83569734	     -0.58830056	     41.39755460	     -7.22786431	     -1.49135118	     45.86262542	      0.80045382	     19.34940035	     -9.08998891	     -7.49999987	     42.70742189	    -10.46686347	    -11.12102349	     47.61819603	      0.83109430	     18.64422100	      7.26658220	     -7.49999987	    -15.34481385	     -1.09941610	     -2.06592392	     11.02109087	     -7.45620814	     -8.34307758	     99.81069719	     99.42277811	     14.54432503	     -3.88123433	    -17.79005601	    106.71050882	     93.83695111
      9.71000000	    -13.01464050	      0.22965056	      1.39030040	     -0.25771114	      0.84024697	     -0.58847650	     40.00743889	     -7.03671420	     -1.56324318	     44.27103799	      0.77267538	     18.26503079	    -10.11456778	     -7.49999987	     41.50141364	    -10.35389761	    -11.28626858	     46.23187320	      0.80689841	     18.05793533	      7.21880152	     -7.49999987	    -14.89828954	     -1.02162433	     -1.87355846	      9.97271084	     -7.24504268	     -8.99721853	     99.41128454	     99.85043195	     14.15886103	     -3.97348970	    -17.06393343	    105.83949781	     93.78621697
